<?xml version="1.0" encoding="utf-8"?>
<!-- Generator: Adobe Illustrator 22.0.1, SVG Export Plug-In . SVG Version: 6.00 Build 0)  -->
<svg version="1.1" xmlns="http://www.w3.org/2000/svg" xmlns:xlink="http://www.w3.org/1999/xlink" x="0px" y="0px"
	 viewBox="0 0 364.3 360" style="enable-background:new 0 0 364.3 360;" xml:space="preserve">
<style type="text/css">
	.st0{fill:#1E5FAD;stroke:#FFFFFF;stroke-width:2;stroke-miterlimit:10;}
	.st1{fill:none;stroke:#FFFFFF;stroke-width:14;stroke-miterlimit:10;}
	.st2{fill:#FFFFFF;stroke:#FFFFFF;stroke-width:14;stroke-miterlimit:10;}
	.st3{fill:none;stroke:#FFFFFF;stroke-width:14;}
</style>
<g id="Layer_2">
	<path class="st0" d="M272.4,360H91.9C41.1,360,0,318.9,0,268.1V91.9C0,41.1,41.1,0,91.9,0h180.5c50.7,0,91.9,41.1,91.9,91.9v176.2
		C364.3,318.9,323.2,360,272.4,360z"/>
</g>
<g id="Layer_1">
	<g id="Layer_1_1_">
		<path id="XMLID_13_" class="st1" d="M94.4,41.8C112.3,30.2,132.7,21.9,155,18c89.2-15.9,174.4,43.6,190.3,132.9
			c15.9,89.2-43.6,174.5-133,190.3s-174.4-43.6-190.3-133c-6.7-38,0.2-75.2,17.1-106.6"/>
		<circle id="XMLID_12_" class="st2" cx="58.5" cy="68.2" r="10.4"/>
	</g>
</g>
<g id="Layer_3">
	<g id="XMLID_16_">
		<g id="XMLID_17_">
			<path id="XMLID_18_" class="st3" d="M97.7,218.2L97.7,218.2l-22.6,25.3l0,0l19,23.1l0,0l32.3-14l0,0c6.9,5.1,14.7,9.3,23,12.5
				l0,0l2.7,34.1l0,0l30.4,3.5l0,0l12.6-31.9l0,0c9.8-1.1,19.1-3.6,27.8-7.4l0,0l26.7,22.1l0,0l24-18.2l0,0L259,236.1l0,0
				c5.8-7.2,10.5-15.2,14-24l0,0l33-2.4l0,0l3.6-29.3l0,0l-31.3-11.4l0,0c-1.1-9.2-3.7-17.9-7.5-26.1l0,0l23.2-25.9l0,0l-19-23.2
				l0,0l-32.5,14.1l0,0c-7.8-5.8-16.5-10.6-26-13.9l0,0l-2.6-33.2l0,0l-30.4-3.5l0,0l-12.6,32l0,0c-8,1.1-26,7.2-26.3,7.4l0,0
				c-8.9-7.3-17.7-14.7-26.6-22c-8,6.1-16,12.2-24.1,18.2c12,18.3,16.9,29.4,16.9,29.4l-6.2,7.9c0,0-6.2,8.8-9.5,17.1l0,0l-36.9,2.7
				l0,0l-3.6,29.3l0,0l35.2,12.8C90.1,193.3,97.7,218.2,97.7,218.2z"/>
		</g>
	</g>
</g>
</svg>
