<?xml version="1.0" encoding="utf-8"?>
<!--Generator: Adobe Illustrator 19.0.0, SVG Export Plug-In . SVG Version: 6.00 Build 0)-->
<svg xmlns="http://www.w3.org/2000/svg" xmlns:xlink="http://www.w3.org/1999/xlink" id="Layer_1" x="0px" y="0px" style="enable-background:new 0 0 1453.4 235.5" version="1.1" viewBox="0 0 1453.4 235.5" xml:space="preserve">
    <style type="text/css">
        .st0{fill:none;stroke:#fff;stroke-width:8;} 
		.st1{fill:none;stroke:#fff;stroke-width:10;stroke-miterlimit:10;} 
		.st2{stroke:#fff;stroke-width:10;stroke-miterlimit:10;} 
		path { fill: white; } 
    </style>
    <g id="XMLID_16_">
        <g id="XMLID_17_">
            <path id="XMLID_18_" d="M60.7,140.7c0,0-13.1,15.3-13.1,15.3c0,0,0,0,0,0l11,14c0,0,0,0,0,0l18.7-8.5c0,0,0,0,0,0
			c4,3.1,8.5,5.6,13.3,7.5c0,0,0,0,0,0l1.6,20.6c0,0,0,0,0,0l17.7,2.1c0,0,0,0,0,0l7.3-19.3c0,0,0,0,0,0c5.7-0.7,11.1-2.2,16.1-4.4
			c0,0,0,0,0,0l15.5,13.3c0,0,0,0,0,0l14-11c0,0,0,0,0,0l-8.5-18.7c0,0,0,0,0,0c3.4-4.3,6.1-9.2,8.1-14.5c0,0,0,0,0,0l19.2-1.4
			c0,0,0,0,0,0l2.1-17.6c0,0,0,0,0,0l-18.1-6.9c0,0,0,0,0,0c-0.7-5.5-2.1-10.8-4.3-15.8c0,0,0,0,0,0l13.5-15.7c0,0,0,0,0,0l-11-14
			c0,0,0,0,0,0l-18.9,8.5c0,0,0,0,0,0c-4.5-3.5-9.6-6.4-15.1-8.4c0,0,0,0,0,0l-1.5-20c0,0,0,0,0,0l-17.6-2.1c0,0,0,0,0,0L103.2,63
			c0,0,0,0,0,0c-4.7,0.6-15.1,4.4-15.2,4.4c0,0,0,0,0,0c-5.1-4.4-10.3-8.8-15.4-13.2c-4.7,3.7-9.3,7.3-14,11
			c7,11.1,9.8,17.8,9.8,17.8l-3.6,4.8c0,0-3.6,5.3-5.5,10.3c0,0,0,0,0,0l-21.4,1.6c0,0,0,0,0,0l-2.1,17.6c0,0,0,0,0,0l20.4,7.7
			c0,0,0,0,0,0L60.7,140.7z" class="st0"/>
        </g>
    </g>
    <path id="XMLID_31_" d="M62.4,39c13.8-8.3,30-13.1,47.3-13.1c28.5,0,53.9,13,70.8,33.4c6.5,7.9,11.8,17,15.4,26.8
	s5.6,20.5,5.6,31.6c0,6.5-0.7,12.9-2,19c-1.3,6.1-3.2,12-5.6,17.6c-2,4.5-4.3,8.9-7,13c-16.3,25.3-44.8,42.1-77.2,42.1
	C59,209.4,18,168.4,18,117.7c0-16.1,4.1-31.2,11.4-44.4" class="st1"/>
    <circle id="XMLID_32_" cx="43.9" cy="54" r="5.8" class="st2"/>
    <g id="XMLID_60_">
        <path id="XMLID_61_" d="M215.8,72.2h42.8c3.6,0,5.4,1.9,5.4,5.6v1.5c0,3.5-1.8,5.3-5.4,5.3h-9.8c-3.6,0-5.4,1.9-5.4,5.6v74.1
		c0,3.7-1.8,5.6-5.4,5.6h-1.5c-3.6,0-5.4-1.9-5.4-5.6V90.1c0-3.7-1.8-5.6-5.4-5.6h-9.9c-3.6,0-5.4-1.8-5.4-5.3v-1.5
		C210.4,74.1,212.2,72.2,215.8,72.2z"/>
        <path id="XMLID_63_" d="M323,162.6v1.5c0,3.8-1.8,5.7-5.4,5.7h-34.4c-2.6,0-4.8-1-6.6-3.1l-4.3-4.3c-1.8-1.8-2.7-4-2.7-6.6v-78
		c0-3.6,1.8-5.4,5.4-5.4h42.7c3.6,0,5.4,1.8,5.4,5.4v1.5c0,3.6-1.8,5.4-5.4,5.4h-30.5c-3.6,0-5.4,1.8-5.4,5.4v18.2
		c0,3.8,1.8,5.7,5.4,5.7h30.5c3.6,0,5.4,1.7,5.4,5.1v1.5c0,3.8-1.8,5.7-5.4,5.7h-30.5c-3.6,0-5.4,1.7-5.4,5.1v20.5
		c0,3.8,1.8,5.7,5.4,5.7h30.5C321.2,157.4,323,159.1,323,162.6z"/>
        <path id="XMLID_65_" d="M376.5,98.6V87.9c0-3.6-1.8-5.4-5.4-5.4h-18.2c-3.6,0-5.4,1.8-5.4,5.4v21.5c0,3.6,1.8,5.4,5.4,5.4h22.2
		c2.6,0,4.8,0.9,6.6,2.7l4.3,4.3c1.8,1.8,2.7,4,2.7,6.6v27.4c0,2.6-0.9,4.9-2.7,6.8l-4.3,4.3c-1.8,1.8-4,2.7-6.6,2.7H349
		c-2.6,0-4.8-0.9-6.6-2.7l-4.5-4.5c-1.8-1.8-2.7-4-2.7-6.6v-13.3c0-3.6,1.8-5.4,5.4-5.4h1.5c3.6,0,5.4,1.8,5.4,5.4v9.3
		c0,3.6,1.8,5.4,5.4,5.4h18.2c3.6,0,5.4-1.8,5.4-5.4v-19.5c0-3.6-1.8-5.4-5.4-5.4H349c-2.7,0-5-0.9-6.8-2.7l-4.3-4.3
		c-1.8-1.8-2.7-4-2.7-6.6V84c0-2.6,0.9-4.9,2.7-6.8l4.3-4.3c1.8-1.8,4-2.7,6.6-2.7h26.3c2.6,0,4.8,0.9,6.6,2.8l4.3,4.3
		c1.8,1.8,2.7,4,2.7,6.6v14.6c0,3.6-1.8,5.4-5.4,5.4h-1.5C378.3,104,376.5,102.2,376.5,98.6z"/>
        <path id="XMLID_67_" d="M399.6,72.2h42.8c3.6,0,5.4,1.9,5.4,5.6v1.5c0,3.5-1.8,5.3-5.4,5.3h-9.8c-3.6,0-5.4,1.9-5.4,5.6v74.1
		c0,3.7-1.8,5.6-5.4,5.6h-1.5c-3.6,0-5.4-1.9-5.4-5.6V90.1c0-3.7-1.8-5.6-5.4-5.6h-9.9c-3.6,0-5.4-1.8-5.4-5.3v-1.5
		C394.2,74.1,396,72.2,399.6,72.2z"/>
        <path id="XMLID_69_" d="M501.9,164.9l-3.4-16.3c-0.7-3.3-2.7-4.9-5.8-4.9h-20.5c-3.2,0-5.1,1.6-5.8,4.9l-3.4,16.3
		c-0.7,3.3-2.7,4.9-5.8,4.9h-1.6c-1.6,0-2.9-0.4-3.7-1.2c-0.9-0.8-1.3-1.9-1.3-3.2c0-0.6,0-1.1,0.1-1.5l17.2-86.4
		c0.7-3.3,2.7-4.9,5.8-4.9h17.1c3.2,0,5.1,1.6,5.8,4.9l17.6,86.4c0.1,0.4,0.1,0.9,0.1,1.6c0,2.9-1.7,4.3-5,4.3h-1.6
		C504.6,169.8,502.6,168.1,501.9,164.9z M478.2,89.7l-7.2,35.9c-0.1,0.4-0.1,0.9-0.1,1.5c0,1.4,0.4,2.4,1.3,3.3
		c0.9,0.8,2.1,1.2,3.7,1.2h13c3.3,0,5-1.4,5-4.3c0-0.7,0-1.3-0.1-1.6l-7.5-35.9c-0.7-3.3-2.1-4.9-4.1-4.9
		C480.3,84.8,478.9,86.4,478.2,89.7z"/>
        <path id="XMLID_72_" d="M572,72.2h1.5c3.6,0,5.4,1.8,5.4,5.4v78.2c0,2.6-0.9,4.9-2.7,6.8l-4.3,4.3c-1.8,1.9-4,2.8-6.6,2.8H539
		c-2.6,0-4.8-0.9-6.6-2.8l-4.5-4.5c-1.8-1.8-2.7-4-2.7-6.6V77.6c0-3.6,1.8-5.4,5.4-5.4h1.5c3.6,0,5.4,1.8,5.4,5.4v74.2
		c0,3.7,1.8,5.6,5.4,5.6h18.2c3.6,0,5.4-1.9,5.4-5.6V77.6C566.5,74,568.4,72.2,572,72.2z"/>
        <path id="XMLID_74_" d="M589.7,72.2h42.8c3.6,0,5.4,1.9,5.4,5.6v1.5c0,3.5-1.8,5.3-5.4,5.3h-9.8c-3.6,0-5.4,1.9-5.4,5.6v74.1
		c0,3.7-1.8,5.6-5.4,5.6h-1.5c-3.6,0-5.4-1.9-5.4-5.6V90.1c0-3.7-1.8-5.6-5.4-5.6h-9.9c-3.6,0-5.4-1.8-5.4-5.3v-1.5
		C584.3,74.1,586.1,72.2,589.7,72.2z"/>
        <path id="XMLID_76_" d="M694.3,162.7L690,167c-1.8,1.8-4,2.7-6.6,2.7h-26.1c-2.6,0-4.8-0.9-6.6-2.7l-4.5-4.5
		c-1.8-1.8-2.7-4-2.7-6.6V86c0-2.6,0.9-4.9,2.7-6.8l4.3-4.3c1.8-1.8,4-2.7,6.6-2.7h26.3c2.6,0,4.8,0.9,6.6,2.8l4.3,4.3
		c1.8,1.8,2.7,4,2.7,6.6v69.9C697,158.6,696.1,160.8,694.3,162.7z M684.7,152V90c0-3.6-1.8-5.4-5.4-5.4h-18.2
		c-3.6,0-5.4,1.8-5.4,5.4v62c0,3.6,1.8,5.4,5.4,5.4h18.2C682.9,157.4,684.7,155.6,684.7,152z"/>
        <path id="XMLID_79_" d="M748.9,161.4h-5.3c-3.3,0-5.3-1.5-6.2-4.6l-8.5-27.1c-0.4-1-0.8-1.7-1.4-2.2c-0.6-0.5-1.2-0.8-1.8-0.8
		c-0.8,0-1.5,0.3-2,1c-0.5,0.7-0.8,1.7-0.8,2.9v33.6c0,3.7-1.8,5.6-5.4,5.6H716c-3.6,0-5.4-1.9-5.4-5.6V77.9c0-3.6,1.8-5.4,5.4-5.4
		h2c3.2,0,5.2,1.5,6.1,4.5l18.4,58.9c0.4,1.3,0.9,2.2,1.5,2.9c0.6,0.7,1.3,1,1.9,1c0.7,0,1.4-0.4,2-1.1c0.6-0.7,1.1-1.7,1.5-3
		l17.3-58.7c1-3.1,3-4.6,6.1-4.6h2.3c3.6,0,5.4,1.8,5.4,5.4v86.3c0,3.7-1.8,5.6-5.4,5.6h-1.4c-3.6,0-5.4-1.9-5.4-5.6v-32.1
		c0-1.3-0.3-2.2-0.8-2.9s-1.2-1-2-1c-1.4,0-2.5,1-3.1,2.9l-7.5,25.5C754,159.8,752,161.4,748.9,161.4z"/>
        <path id="XMLID_81_" d="M842.8,164.9l-3.4-16.3c-0.7-3.3-2.7-4.9-5.8-4.9h-20.5c-3.2,0-5.1,1.6-5.8,4.9l-3.4,16.3
		c-0.7,3.3-2.7,4.9-5.8,4.9h-1.6c-1.6,0-2.9-0.4-3.7-1.2c-0.9-0.8-1.3-1.9-1.3-3.2c0-0.6,0-1.1,0.1-1.5l17.2-86.4
		c0.7-3.3,2.7-4.9,5.8-4.9h17.1c3.2,0,5.1,1.6,5.8,4.9l17.6,86.4c0.1,0.4,0.1,0.9,0.1,1.6c0,2.9-1.7,4.3-5,4.3h-1.6
		C845.4,169.8,843.5,168.1,842.8,164.9z M819.1,89.7l-7.2,35.9c-0.1,0.4-0.1,0.9-0.1,1.5c0,1.4,0.4,2.4,1.3,3.3
		c0.9,0.8,2.1,1.2,3.7,1.2h13c3.3,0,5-1.4,5-4.3c0-0.7,0-1.3-0.1-1.6l-7.5-35.9c-0.7-3.3-2.1-4.9-4.1-4.9
		C821.1,84.8,819.8,86.4,819.1,89.7z"/>
        <path id="XMLID_84_" d="M863.4,72.2h42.8c3.6,0,5.4,1.9,5.4,5.6v1.5c0,3.5-1.8,5.3-5.4,5.3h-9.8c-3.6,0-5.4,1.9-5.4,5.6v74.1
		c0,3.7-1.8,5.6-5.4,5.6h-1.5c-3.6,0-5.4-1.9-5.4-5.6V90.1c0-3.7-1.8-5.6-5.4-5.6h-9.9c-3.6,0-5.4-1.8-5.4-5.3v-1.5
		C857.9,74.1,859.8,72.2,863.4,72.2z"/>
        <path id="XMLID_86_" d="M914.2,158.8c0.8-0.9,2-1.4,3.5-1.4c1.5,0,2.7-0.5,3.5-1.4c0.8-0.9,1.2-2.3,1.2-4V90.1
		c0-1.7-0.4-3.1-1.2-4.1c-0.8-1-2-1.5-3.5-1.5c-1.5,0-2.7-0.5-3.5-1.4S913,81,913,79.3v-1.5c0-3.7,1.8-5.6,5.4-5.6H939
		c3.6,0,5.4,1.9,5.4,5.6v1.5c0,3.5-1.6,5.3-4.7,5.3c-1.5,0-2.7,0.5-3.6,1.5c-0.9,1-1.3,2.3-1.3,4.1V152c0,1.7,0.4,3.1,1.3,4
		c0.9,0.9,2.1,1.4,3.6,1.4c1.5,0,2.7,0.5,3.5,1.4s1.2,2.3,1.2,4v1.5c0,3.6-1.8,5.4-5.4,5.4h-20.6c-3.6,0-5.4-1.8-5.4-5.4v-1.5
		C913,161.1,913.4,159.8,914.2,158.8z"/>
        <path id="XMLID_88_" d="M1004.8,162.7l-4.3,4.3c-1.8,1.8-4,2.7-6.6,2.7h-26.1c-2.6,0-4.8-0.9-6.6-2.7l-4.5-4.5
		c-1.8-1.8-2.7-4-2.7-6.6V86c0-2.6,0.9-4.9,2.7-6.8l4.3-4.3c1.8-1.8,4-2.7,6.6-2.7h26.3c2.6,0,4.8,0.9,6.6,2.8l4.3,4.3
		c1.8,1.8,2.7,4,2.7,6.6v69.9C1007.5,158.6,1006.6,160.8,1004.8,162.7z M995.2,152V90c0-3.6-1.8-5.4-5.4-5.4h-18.2
		c-3.6,0-5.4,1.8-5.4,5.4v62c0,3.6,1.8,5.4,5.4,5.4h18.2C993.4,157.4,995.2,155.6,995.2,152z"/>
        <path id="XMLID_91_" d="M1028,169.8h-1.5c-3.6,0-5.4-1.8-5.4-5.4V77.8c0-3.7,1.8-5.6,5.4-5.6h2.7c3,0,5.1,1.4,6.2,4.2l21.8,50.3
		c0.5,1,1,1.8,1.7,2.3c0.7,0.6,1.3,0.9,2,0.9c0.8,0,1.5-0.4,2-1.1c0.5-0.7,0.7-1.8,0.7-3.3V77.8c0-3.7,1.8-5.6,5.4-5.6h1.5
		c3.6,0,5.4,1.9,5.4,5.6v86.6c0,3.6-1.8,5.4-5.4,5.4h-1.5c-3,0-5.1-1.4-6.2-4.1l-23-52.7c-0.9-2.2-2.1-3.3-3.5-3.3
		c-0.8,0-1.5,0.4-2,1.3c-0.5,0.8-0.8,2-0.8,3.4v50C1033.4,167.9,1031.6,169.8,1028,169.8z"/>
        <path id="XMLID_93_" d="M1096.4,181.8h-2.8c-3.6,0-5.4-1.7-5.4-5.1v-6.1c0-3.8,1.8-5.7,5.4-5.7h2.8c3.6,0,5.4,1.9,5.4,5.7v6.1
		C1101.8,180.1,1100,181.8,1096.4,181.8z"/>
        <path id="XMLID_95_" d="M1155.3,98.6V87.9c0-3.6-1.8-5.4-5.4-5.4h-18.2c-3.6,0-5.4,1.8-5.4,5.4v21.5c0,3.6,1.8,5.4,5.4,5.4h22.2
		c2.6,0,4.8,0.9,6.6,2.7l4.3,4.3c1.8,1.8,2.7,4,2.7,6.6v27.4c0,2.6-0.9,4.9-2.7,6.8l-4.3,4.3c-1.8,1.8-4,2.7-6.6,2.7h-26.1
		c-2.6,0-4.8-0.9-6.6-2.7l-4.5-4.5c-1.8-1.8-2.7-4-2.7-6.6v-13.3c0-3.6,1.8-5.4,5.4-5.4h1.5c3.6,0,5.4,1.8,5.4,5.4v9.3
		c0,3.6,1.8,5.4,5.4,5.4h18.2c3.6,0,5.4-1.8,5.4-5.4v-19.5c0-3.6-1.8-5.4-5.4-5.4h-22.1c-2.7,0-5-0.9-6.8-2.7l-4.3-4.3
		c-1.8-1.8-2.7-4-2.7-6.6V84c0-2.6,0.9-4.9,2.7-6.8l4.3-4.3c1.8-1.8,4-2.7,6.6-2.7h26.3c2.6,0,4.8,0.9,6.6,2.8l4.3,4.3
		c1.8,1.8,2.7,4,2.7,6.6v14.6c0,3.6-1.8,5.4-5.4,5.4h-1.5C1157.1,104,1155.3,102.2,1155.3,98.6z"/>
        <path id="XMLID_97_" d="M1234.8,86.4v36.3c0,2.6-0.9,4.9-2.7,6.8l-4.3,4.3c-1.8,1.8-4,2.7-6.6,2.7h-22.2c-3.6,0-5.4,1.8-5.4,5.4
		v22.5c0,3.6-1.8,5.4-5.4,5.4h-1.5c-3.6,0-5.4-1.8-5.4-5.4V78c0-3.7,1.8-5.6,5.4-5.6h34.5c2.6,0,4.8,0.9,6.6,2.8l4.3,4.3
		C1233.9,81.6,1234.8,83.8,1234.8,86.4z M1217.2,84.8h-18.2c-3.6,0-5.4,1.9-5.4,5.6v28.5c0,3.6,1.8,5.4,5.4,5.4h18
		c3.6,0,5.4-1.8,5.4-5.4l0.1-28.5C1222.6,86.7,1220.8,84.8,1217.2,84.8z"/>
        <path id="XMLID_100_" d="M1295.7,164.9l-3.4-16.3c-0.7-3.3-2.7-4.9-5.8-4.9H1266c-3.2,0-5.1,1.6-5.8,4.9l-3.4,16.3
		c-0.7,3.3-2.7,4.9-5.8,4.9h-1.6c-1.6,0-2.9-0.4-3.7-1.2c-0.9-0.8-1.3-1.9-1.3-3.2c0-0.6,0-1.1,0.1-1.5l17.2-86.4
		c0.7-3.3,2.7-4.9,5.8-4.9h17.1c3.2,0,5.1,1.6,5.8,4.9l17.6,86.4c0.1,0.4,0.1,0.9,0.1,1.6c0,2.9-1.7,4.3-5,4.3h-1.6
		C1298.3,169.8,1296.4,168.1,1295.7,164.9z M1272,89.7l-7.2,35.9c-0.1,0.4-0.1,0.9-0.1,1.5c0,1.4,0.4,2.4,1.3,3.3
		c0.9,0.8,2.1,1.2,3.7,1.2h13c3.3,0,5-1.4,5-4.3c0-0.7,0-1.3-0.1-1.6l-7.5-35.9c-0.7-3.3-2.1-4.9-4.1-4.9
		C1274,84.8,1272.7,86.4,1272,89.7z"/>
        <path id="XMLID_103_" d="M1360.3,104.7V90.1c0-3.7-1.8-5.6-5.4-5.6h-18.2c-3.6,0-5.4,1.9-5.4,5.6V152c0,3.6,1.8,5.4,5.4,5.4h18.2
		c3.6,0,5.4-1.8,5.4-5.4v-13.3c0-3.6,1.8-5.5,5.4-5.5h1.5c3.6,0,5.4,1.8,5.4,5.5v17.2c0,2.6-0.9,4.8-2.7,6.6l-4.5,4.5
		c-1.8,1.8-4,2.7-6.6,2.7h-26c-2.6,0-4.8-0.9-6.6-2.7l-4.5-4.5c-1.8-1.8-2.7-4-2.7-6.6V86.2c0-2.6,0.9-4.8,2.7-6.6l4.5-4.5
		c1.8-1.9,4-2.8,6.6-2.8h26c2.6,0,4.8,0.9,6.6,2.8l4.5,4.5c1.8,1.8,2.7,4,2.7,6.6v18.6c0,3.6-1.8,5.3-5.4,5.3h-1.5
		C1362.1,110.1,1360.3,108.3,1360.3,104.7z"/>
        <path id="XMLID_105_" d="M1439.7,162.6v1.5c0,3.8-1.8,5.7-5.4,5.7h-34.4c-2.6,0-4.8-1-6.6-3.1l-4.3-4.3c-1.8-1.8-2.7-4-2.7-6.6v-78
		c0-3.6,1.8-5.4,5.4-5.4h42.7c3.6,0,5.4,1.8,5.4,5.4v1.5c0,3.6-1.8,5.4-5.4,5.4h-30.5c-3.6,0-5.4,1.8-5.4,5.4v18.2
		c0,3.8,1.8,5.7,5.4,5.7h30.5c3.6,0,5.4,1.7,5.4,5.1v1.5c0,3.8-1.8,5.7-5.4,5.7h-30.5c-3.6,0-5.4,1.7-5.4,5.1v20.5
		c0,3.8,1.8,5.7,5.4,5.7h30.5C1437.9,157.4,1439.7,159.1,1439.7,162.6z"/>
    </g>
</svg>
